<svg version="1.1" xmlns="http://www.w3.org/2000/svg" xmlns:xlink="http://www.w3.org/1999/xlink" x="0px" y="0px" viewBox="0 0 340 361" enable-background="new 0 0 340 361" xml:space="preserve">
	 <style>
	 	#Layer_2 path {
			fill: #6c9d30;

		}

		#Layer_3 path {
			fill: #acd038; 
		}

		#Layer_4 path {
			fill: #8cc540; 
		}

		stroke-dasharray: 1200;
        stroke-dashoffset: 1200;
        stroke-width:5;
        animation:summerbird-s .75s linear forwards .5s;

		@keyframes summerbird-s {
			0% {
				stroke-dashoffset: 1200
			}
			33% {
				stroke-width:5;
			}
			90% {
				stroke-dashoffset: 0;
			}
			100% {
				stroke-dashoffset: 0;
				stroke-width:17;
			}
		}

	 </style>
	<g id="Layer_3">
		<path stroke-miterlimit="10" d="M336,217.8c0,76.04-61.64,137.681-137.68,137.681
			c-69.93,0-127.68-52.131-136.51-119.641c20.53,50.24,69.89,85.641,127.51,85.641C265.36,321.48,327,259.84,327,183.8
			c0-6.12-0.4-12.15-1.18-18.06C332.38,181.8,336,199.38,336,217.8z"/>
	</g>
	<g id="Layer_4">
		<path stroke-miterlimit="10" d="M312,190c0,42.84-27.21,79.32-65.29,93.11
			c29.69-17.5,49.62-49.811,49.62-86.78c0-55.59-45.07-100.66-100.66-100.66c-5.77,0-11.43,0.49-16.93,1.42
			C189.41,93.15,200.96,91,213,91C267.68,91,312,135.32,312,190z"/>
		<path stroke-miterlimit="10" d="M224,107.333c1.625-1.458-10.416,24.417-34.333,30.917
			c-37.417,7.5-53.667-19.5-53.667-19.5s-19.5-24.5,11-43c0,0-10.75,13.625,1,17s15.25-19.375,45.75-22.25
			c20,3.125,22.875,12.375,27.5,15.75S194.875,78,167,101.5C167,101.5,205.25,93.25,224,107.333z"/>
	</g>
	<g id="Layer_2">
		<path stroke-miterlimit="10" d="M37,202.5c0,59.88,29.65,112.84,75.08,144.98
			C49.08,320.23,5,257.51,5,184.5C5,86.47,84.47,7,182.5,7c38.15,0,73.49,12.04,102.42,32.52C263.33,30.18,239.52,25,214.5,25
			C116.47,25,37,104.47,37,202.5z"/>
	</g>
</svg>
